<svg id="Logo" xmlns="http://www.w3.org/2000/svg" width="286.669" height="101.577" viewBox="0 0 286.669 101.577">
  <path id="Path_5540" data-name="Path 5540" d="M115.49,50.789a50.789,50.789,0,1,1,50.789,50.789A50.789,50.789,0,0,1,115.49,50.789Z" transform="translate(69.602 0)" fill="#ef7c00" fill-rule="evenodd"/>
  <path id="Path_5541" data-name="Path 5541" d="M117.78,49.414a47.37,47.37,0,1,1,0,.005Z" transform="translate(70.982 1.374)" fill="#fff" fill-rule="evenodd"/>
  <path id="Path_5542" data-name="Path 5542" d="M121.65,47.082a40.916,40.916,0,1,1,40.911,40.9,40.916,40.916,0,0,1-40.911-40.9Z" transform="translate(73.315 3.706)" fill="#181716" fill-rule="evenodd"/>
  <path id="Path_5543" data-name="Path 5543" d="M120.07,48.034a43.307,43.307,0,1,1,0,.005Z" transform="translate(72.362 2.754)" fill="#ef7c00" fill-rule="evenodd"/>
  <path id="Path_5544" data-name="Path 5544" d="M157,8.46H144.08V30.817h3.654V20.576h7.42v-3h-7.42V11.505h8.815Z" transform="translate(86.832 5.099)" fill="#fff" fill-rule="evenodd"/>
  <path id="Path_5545" data-name="Path 5545" d="M157.617,56.722V41h-3.638V55.761c0,2.917-1.3,4.471-3.975,4.471s-3.894-1.106-3.894-4.471V41h-3.67V56.834c0,3.526,1.811,6.507,7.565,6.507C154.829,63.261,157.617,60.761,157.617,56.722Z" transform="translate(85.844 24.709)" fill="#fff" fill-rule="evenodd"/>
  <path id="Path_5546" data-name="Path 5546" d="M160.852,24.71l-2.18,10.337c-.753,3.606-1.17,7.132-1.17,7.132h-.1S156.781,38,156.2,35.3L153.929,24.71H150.1L147.822,35.3c-.577,2.692-1.2,6.875-1.2,6.875h-.1s-.417-3.526-1.17-7.132l-2.2-10.337H139.2l5.225,22.357H148.7l2.132-10.417c.529-2.692,1.106-6.315,1.106-6.315h0s.577,3.622,1.106,6.315l2.132,10.417h4.279l5.225-22.357Z" transform="translate(83.891 14.892)" fill="#fff" fill-rule="evenodd"/>
  <path id="Path_5547" data-name="Path 5547" d="M0,34.612V17.88H2.308c5.705,0,8.622,2.709,8.622,8.206a8.991,8.991,0,0,1-2,6.09,7.773,7.773,0,0,1-6.2,2.436ZM1.6,19.274V33.234h1.6a5.449,5.449,0,0,0,4.648-2.116A7.789,7.789,0,0,0,9.279,26.31a8.719,8.719,0,0,0-.962-4.455,5.786,5.786,0,0,0-5.4-2.516Z" transform="translate(0 10.776)" fill="#fff"/>
  <path id="Path_5548" data-name="Path 5548" d="M16.676,24.659v5.609a21.443,21.443,0,0,0,.144,2.725H15.506l-.128-1.747h0a4.039,4.039,0,0,1-3.59,1.923A3.414,3.414,0,0,1,9.24,32.127a3.51,3.51,0,0,1-1.01-2.516q0-3.975,6.218-3.975h.93a6.747,6.747,0,0,0-.321-2.436,2.308,2.308,0,0,0-2.388-1.3,5.225,5.225,0,0,0-3.205,1.266l-.224-1.49A8.013,8.013,0,0,1,12.67,20.6a3.542,3.542,0,0,1,4.007,4.055ZM15.3,28.281V26.838a14.424,14.424,0,0,0-3.911.337,2.34,2.34,0,0,0-1.6,2.436,2.164,2.164,0,0,0,.689,1.6,2.372,2.372,0,0,0,1.7.657,3.205,3.205,0,0,0,1.875-.545,3.446,3.446,0,0,0,1.25-3.045Z" transform="translate(4.96 12.395)" fill="#fff"/>
  <path id="Path_5549" data-name="Path 5549" d="M21.431,20.961,21.222,22.4a6.747,6.747,0,0,0-2.2-.5,2.388,2.388,0,0,0-1.6.529,1.8,1.8,0,0,0-.625,1.41,1.6,1.6,0,0,0,.449,1.218,9.424,9.424,0,0,0,1.747,1.058,12.164,12.164,0,0,1,2.228,1.362,2.789,2.789,0,0,1,.914,2.132,3.318,3.318,0,0,1-1.058,2.58,3.943,3.943,0,0,1-2.773.978A9.744,9.744,0,0,1,15.1,32.6l.192-1.6a5.209,5.209,0,0,0,2.949.833,2.516,2.516,0,0,0,1.6-.609,1.923,1.923,0,0,0,.705-1.507,1.779,1.779,0,0,0-.577-1.362,7.148,7.148,0,0,0-1.731-1.01,7.821,7.821,0,0,1-2.324-1.426,2.773,2.773,0,0,1-.705-1.971,3.061,3.061,0,0,1,1.106-2.452,4.039,4.039,0,0,1,2.692-.93,8.671,8.671,0,0,1,2.42.4Z" transform="translate(9.1 12.39)" fill="#fff"/>
  <path id="Path_5550" data-name="Path 5550" d="M25.13,34.612V17.88H27.5L32.454,32.5h0L37.39,17.96h2.372V34.612h-1.49V19.274L33.031,34.612H31.845L26.588,19.274V34.612Z" transform="translate(15.145 10.776)" fill="#fff"/>
  <path id="Path_5551" data-name="Path 5551" d="M44.924,27.326H37.792a5.529,5.529,0,0,0,.785,3.205,3.205,3.205,0,0,0,2.853,1.394,4.183,4.183,0,0,0,2.789-1.058v1.6a6.763,6.763,0,0,1-3.013.689q-5.064,0-5.064-6.282A8.35,8.35,0,0,1,37.1,22.71a3.943,3.943,0,0,1,3.622-2.116,3.462,3.462,0,0,1,3.542,2.26,11.892,11.892,0,0,1,.657,4.471ZM37.792,26.06h5.561a6.411,6.411,0,0,0-.481-2.66,2.244,2.244,0,0,0-2.148-1.507,2.548,2.548,0,0,0-2.228,1.49A5.241,5.241,0,0,0,37.792,26.06Z" transform="translate(21.779 12.404)" fill="#fff"/>
  <path id="Path_5552" data-name="Path 5552" d="M51.986,17.11V31.037c0,1.282,0,2.644.1,4.039H50.719v-1.6a6.619,6.619,0,0,1-1.442,1.346,3.911,3.911,0,0,1-1.971.5q-4.375,0-4.375-6.731a7.581,7.581,0,0,1,.946-3.8,3.654,3.654,0,0,1,3.35-2.035A3.51,3.51,0,0,1,50.431,24.5V17.11ZM44.5,28.97c0,3.318.978,4.984,2.933,4.984s3.205-1.6,3.205-4.808a10.1,10.1,0,0,0-.4-3.205A2.709,2.709,0,0,0,47.482,24c-2-.016-2.981,1.651-2.981,4.968Z" transform="translate(25.872 10.312)" fill="#fff"/>
  <path id="Path_5553" data-name="Path 5553" d="M50.63,19.808V17.66h1.747v2.148Zm.16,14.937V22.532h1.49V34.744Z" transform="translate(30.513 10.643)" fill="#fff"/>
  <path id="Path_5554" data-name="Path 5554" d="M62.174,27.326H55.042a5.529,5.529,0,0,0,.785,3.205,3.205,3.205,0,0,0,2.853,1.394,4.151,4.151,0,0,0,2.789-1.058v1.6a6.763,6.763,0,0,1-3.013.689q-5.064,0-5.064-6.282a8.35,8.35,0,0,1,.962-4.167,3.943,3.943,0,0,1,3.622-2.116,3.462,3.462,0,0,1,3.542,2.26,11.571,11.571,0,0,1,.657,4.471ZM55.042,26.06H60.6a6.411,6.411,0,0,0-.481-2.66,2.244,2.244,0,0,0-2.148-1.49,2.548,2.548,0,0,0-2.228,1.49A5.241,5.241,0,0,0,55.042,26.06Z" transform="translate(32.175 12.404)" fill="#fff"/>
  <path id="Path_5555" data-name="Path 5555" d="M60.61,32.979V20.766h1.378c0,.513.08,1.122.1,1.795h0A3.606,3.606,0,0,1,65.29,20.59c2.388,0,3.574,1.394,3.574,4.2v8.19h-1.49V24.741c0-1.907-.8-2.853-2.388-2.853a2.548,2.548,0,0,0-2.18,1.122,3.894,3.894,0,0,0-.721,2.372v7.6Z" transform="translate(36.528 12.409)" fill="#fff"/>
  <path id="Path_5556" data-name="Path 5556" d="M67.88,19.808V17.66h1.795v2.148Zm.16,14.937V22.532h1.49V34.744Z" transform="translate(40.909 10.643)" fill="#fff"/>
  <path id="Path_5557" data-name="Path 5557" d="M71.14,32.979V20.766H72.5c0,.513.1,1.122.112,1.795h0A3.59,3.59,0,0,1,75.82,20.59c2.372,0,3.574,1.394,3.574,4.2v8.19H77.9V24.741c0-1.907-.8-2.853-2.388-2.853a2.532,2.532,0,0,0-2.18,1.122,3.894,3.894,0,0,0-.721,2.372v7.6Z" transform="translate(42.874 12.409)" fill="#fff"/>
  <path id="Path_5558" data-name="Path 5558" d="M84.261,20.943l-.192,1.442a6.908,6.908,0,0,0-2.212-.5,2.34,2.34,0,0,0-1.6.529,1.763,1.763,0,0,0-.641,1.41,1.6,1.6,0,0,0,.465,1.218A9.087,9.087,0,0,0,81.808,26.1a12.164,12.164,0,0,1,2.228,1.362A2.789,2.789,0,0,1,84.95,29.6a3.317,3.317,0,0,1-1.058,2.58,3.9,3.9,0,0,1-2.757.978,9.9,9.9,0,0,1-3.205-.577l.208-1.6a5.193,5.193,0,0,0,2.933.833,2.484,2.484,0,0,0,1.6-.609,1.875,1.875,0,0,0,.705-1.507,1.779,1.779,0,0,0-.577-1.362,7.292,7.292,0,0,0-1.715-1.01A7.612,7.612,0,0,1,78.763,25.9a2.708,2.708,0,0,1-.721-1.923,3.061,3.061,0,0,1,1.106-2.452,4.1,4.1,0,0,1,2.692-.93A8.59,8.59,0,0,1,84.261,20.943Z" transform="translate(46.966 12.409)" fill="#fff"/>
  <path id="Path_5559" data-name="Path 5559" d="M85.133,19.333l1.49-.433v2.885h2.66v1.282h-2.66V31.08c0,1.234.465,1.843,1.41,1.843a2.949,2.949,0,0,0,1.2-.256v1.378a5.961,5.961,0,0,1-1.7.176c-1.6,0-2.4-.914-2.4-2.757v-8.4H83.21V21.785h1.923Z" transform="translate(50.148 11.39)" fill="#fff"/>
  <path id="Path_5560" data-name="Path 5560" d="M88.36,19.808V17.66h1.731v2.148ZM88.5,34.744V22.532h1.49V34.744Z" transform="translate(53.252 10.643)" fill="#fff"/>
  <path id="Path_5561" data-name="Path 5561" d="M92.651,19.333l1.6-.433v2.885h2.6v1.282h-2.6V31.08c0,1.234.465,1.843,1.394,1.843a2.949,2.949,0,0,0,1.2-.256v1.378a5.834,5.834,0,0,1-1.6.176c-1.6,0-2.4-.914-2.4-2.757v-8.4H90.92V21.785h1.731Z" transform="translate(54.795 11.39)" fill="#fff"/>
  <path id="Path_5562" data-name="Path 5562" d="M104.268,20.7V32.976h-1.362a12.275,12.275,0,0,0-.1-1.795h0a2.564,2.564,0,0,1-.9,1.186,3.8,3.8,0,0,1-2.4.785c-2.372,0-3.558-1.282-3.558-3.862V20.7h1.49v8.238c0,1.907.785,2.853,2.388,2.853a2.548,2.548,0,0,0,2.18-1.122,3.894,3.894,0,0,0,.721-2.372V20.7Z" transform="translate(57.826 12.475)" fill="#fff"/>
  <path id="Path_5563" data-name="Path 5563" d="M104.433,19.333l1.49-.433v2.885h2.612v1.282h-2.612V31.08c0,1.234.481,1.843,1.41,1.843a2.949,2.949,0,0,0,1.2-.256v1.378a5.882,5.882,0,0,1-1.7.176c-1.6,0-2.4-.914-2.4-2.757v-8.4H102.51V21.785h1.923Z" transform="translate(61.78 11.39)" fill="#fff"/>
  <path id="Path_5564" data-name="Path 5564" d="M55.26,33.48V47.407c0,1.3,0,2.644.112,4.055H53.929V49.779a6.266,6.266,0,0,1-1.442,1.346,3.734,3.734,0,0,1-1.955.5q-4.391,0-4.391-6.731a7.533,7.533,0,0,1,.946-3.782A3.654,3.654,0,0,1,50.5,39.121,3.478,3.478,0,0,1,53.7,40.868V33.48ZM47.775,45.356c0,3.382.978,4.984,2.949,4.984s3.205-1.6,3.205-4.808a9.616,9.616,0,0,0-.4-3.205,2.725,2.725,0,0,0-2.8-1.971C48.769,40.355,47.775,42.022,47.775,45.356Z" transform="translate(27.807 20.177)" fill="#fff"/>
  <path id="Path_5565" data-name="Path 5565" d="M62.2,43.685H55.072a5.657,5.657,0,0,0,.785,3.205,3.205,3.205,0,0,0,2.869,1.394,4.135,4.135,0,0,0,2.773-1.01v1.6a6.555,6.555,0,0,1-3.013.689c-3.366,0-5.064-2.083-5.064-6.266a8.414,8.414,0,0,1,.962-4.183A3.959,3.959,0,0,1,58.085,37a3.478,3.478,0,0,1,3.462,2.244,11.667,11.667,0,0,1,.657,4.439Zm-7.132-1.3H60.65a6.411,6.411,0,0,0-.481-2.66,2.276,2.276,0,0,0-2.164-1.49,2.516,2.516,0,0,0-2.212,1.49,5.145,5.145,0,0,0-.721,2.66Z" transform="translate(32.193 22.296)" fill="#fff"/>
  <path id="Path_5566" data-name="Path 5566" d="M60.62,49.341V37.112h1.362c0,.481.08,1.122.112,1.939h0A3.686,3.686,0,0,1,65.476,37v1.474c-2.228,0-3.35,1.074-3.35,3.205v7.693Z" transform="translate(36.534 22.298)" fill="#fff"/>
  <path id="Path_5567" data-name="Path 5567" d="M69,50.992V34.26h1.6V49.6H76.34v1.394Z" transform="translate(41.584 20.647)" fill="#fff"/>
  <path id="Path_5568" data-name="Path 5568" d="M83.056,42.769v5.625a21.7,21.7,0,0,0,.144,2.725H81.886l-.192-1.747h0a4.055,4.055,0,0,1-3.606,1.907,3.5,3.5,0,0,1-3.558-3.542q0-3.975,6.218-3.975h.946a6.411,6.411,0,0,0-.337-2.452A2.308,2.308,0,0,0,79,40.012,5.273,5.273,0,0,0,75.8,41.294l-.224-1.49a8.013,8.013,0,0,1,3.51-1.026,3.542,3.542,0,0,1,3.975,3.991Zm-1.362,3.622V44.964a14.649,14.649,0,0,0-3.927.337,2.324,2.324,0,0,0-1.6,2.436,2.18,2.18,0,0,0,.673,1.6A2.4,2.4,0,0,0,78.489,50a3.205,3.205,0,0,0,1.875-.561A3.4,3.4,0,0,0,81.694,46.391Zm-5.241-9.985V34.05h1.49v2.356Zm3.766,0V34.05h1.474v2.356Z" transform="translate(44.917 20.521)" fill="#fff"/>
  <path id="Path_5569" data-name="Path 5569" d="M82,49.341V37.112h1.362a10.449,10.449,0,0,0,.112,1.795h0A3.59,3.59,0,0,1,86.648,37q3.558,0,3.558,4.183v8.158h-1.49V41.087c0-1.891-.785-2.853-2.372-2.853a2.516,2.516,0,0,0-2.18,1.138,3.911,3.911,0,0,0-.737,2.436v7.533Z" transform="translate(49.419 22.299)" fill="#fff"/>
  <path id="Path_5570" data-name="Path 5570" d="M97.906,33.48V47.407c0,1.3,0,2.644.1,4.055H96.64V49.779a6.3,6.3,0,0,1-1.458,1.346,3.734,3.734,0,0,1-1.955.5q-4.375,0-4.375-6.731a7.517,7.517,0,0,1,.93-3.782,3.67,3.67,0,0,1,3.35-1.987,3.478,3.478,0,0,1,3.205,1.747V33.48Zm-7.5,11.876c0,3.318.978,4.984,2.933,4.984s3.205-1.6,3.205-4.808a9.617,9.617,0,0,0-.4-3.205,2.709,2.709,0,0,0-2.757-1.955C91.4,40.355,90.405,42.022,90.405,45.356Z" transform="translate(53.546 20.177)" fill="#fff"/>
  <path id="Path_5571" data-name="Path 5571" d="M104.874,43.686H97.742a5.657,5.657,0,0,0,.769,3.205,3.205,3.205,0,0,0,2.869,1.394,4.135,4.135,0,0,0,2.773-1.01v1.6a6.507,6.507,0,0,1-3.013.689q-5.048,0-5.048-6.266a8.414,8.414,0,0,1,.962-4.183,3.911,3.911,0,0,1,3.7-2.116,3.478,3.478,0,0,1,3.478,2.244A11.988,11.988,0,0,1,104.874,43.686Zm-7.132-1.3H103.3a6.411,6.411,0,0,0-.481-2.66,2.26,2.26,0,0,0-2.067-1.49,2.532,2.532,0,0,0-2.228,1.49,5.128,5.128,0,0,0-.785,2.66Z" transform="translate(57.909 22.296)" fill="#fff"/>
  <path id="Path_5572" data-name="Path 5572" d="M103.29,49.341V37.112h1.378a15.574,15.574,0,0,0,.1,1.939h0A3.686,3.686,0,0,1,108.146,37v1.474q-3.366,0-3.366,3.205v7.693Z" transform="translate(62.25 22.298)" fill="#fff"/>
</svg>
